<svg width="18" height="18" viewBox="0 0 18 18" fill="none" xmlns="http://www.w3.org/2000/svg">
<path d="M2.24805 8.24334L15.7373 4.49634V13.4892L2.24805 10.4915V8.24334Z" stroke="#9CA3AF" stroke-width="1.1241" stroke-linecap="round" stroke-linejoin="round"/>
<path d="M8.69333 12.5899C8.6146 12.8753 8.48043 13.1424 8.29847 13.3759C8.11652 13.6095 7.89035 13.8049 7.63287 13.951C7.37539 14.0972 7.09165 14.1912 6.79785 14.2276C6.50405 14.2641 6.20594 14.2424 5.92054 14.1637C5.63515 14.0849 5.36805 13.9508 5.13451 13.7688C4.90096 13.5868 4.70555 13.3607 4.55941 13.1032C4.41327 12.8457 4.31928 12.562 4.2828 12.2682C4.24633 11.9744 4.26807 11.6763 4.3468 11.3909" stroke="#9CA3AF" stroke-width="1.1241" stroke-linecap="round" stroke-linejoin="round"/>
</svg>
