<svg width="20" height="20" viewBox="0 0 20 20" fill="none" xmlns="http://www.w3.org/2000/svg">
<g clip-path="url(#clip0_7126_5637)">
<path d="M9.99984 1.6665L10.3352 0.995683C10.1241 0.890111 9.87557 0.890111 9.66443 0.995683L9.99984 1.6665ZM1.6665 8.33317H0.916504V9.08317H1.6665V8.33317ZM18.3332 8.33317V9.08317H19.0832V8.33317H18.3332ZM18.3332 5.83317H19.0832C19.0832 5.54909 18.9227 5.28939 18.6686 5.16235L18.3332 5.83317ZM1.6665 5.83317L1.33109 5.16235C1.07701 5.28939 0.916504 5.54909 0.916504 5.83317H1.6665ZM18.3332 8.33317V7.58317H1.6665V8.33317V9.08317H18.3332V8.33317ZM1.6665 5.83317L2.00191 6.50399L10.3352 2.33732L9.99984 1.6665L9.66443 0.995683L1.33109 5.16235L1.6665 5.83317ZM9.99984 1.6665L9.66443 2.33732L17.9978 6.50399L18.3332 5.83317L18.6686 5.16235L10.3352 0.995683L9.99984 1.6665ZM1.6665 8.33317H2.4165V5.83317H1.6665H0.916504V8.33317H1.6665ZM18.3332 5.83317H17.5832V8.33317H18.3332H19.0832V5.83317H18.3332Z" fill="#6B7280"/>
<path d="M9.99642 5.83301H10.0039" stroke="#6B7280" stroke-width="2" stroke-linecap="square" stroke-linejoin="round"/>
<path d="M3.3335 8.3335V15.4168M6.66683 8.3335V15.4168" stroke="#6B7280" stroke-width="1.5" stroke-linecap="square" stroke-linejoin="round"/>
<path d="M13.3335 8.3335V15.4168M16.6668 8.3335V15.4168" stroke="#6B7280" stroke-width="1.5" stroke-linecap="square" stroke-linejoin="round"/>
<path d="M18.3337 15.4165H1.66699V18.3332H18.3334L18.3337 15.4165Z" stroke="#6B7280" stroke-width="1.5" stroke-linecap="square" stroke-linejoin="round"/>
</g>
<defs>
<clipPath id="clip0_7126_5637">
<rect width="20" height="20" fill="white"/>
</clipPath>
</defs>
</svg>
