<svg width="11" height="11" viewBox="0 0 11 11" fill="none" xmlns="http://www.w3.org/2000/svg">
<g clip-path="url(#clip0_7126_3489)">
<path d="M7.33114 9.16403V1.83281C7.33114 1.58977 7.23459 1.35668 7.06273 1.18482C6.89087 1.01296 6.65778 0.916412 6.41473 0.916412H4.58193C4.33888 0.916412 4.10579 1.01296 3.93394 1.18482C3.76208 1.35668 3.66553 1.58977 3.66553 1.83281V9.16403" stroke="#6B7280" stroke-width="0.687302" stroke-linecap="round" stroke-linejoin="round"/>
<path d="M9.16413 2.74921H1.83291C1.32679 2.74921 0.916504 3.15949 0.916504 3.66561V8.24762C0.916504 8.75374 1.32679 9.16402 1.83291 9.16402H9.16413C9.67024 9.16402 10.0805 8.75374 10.0805 8.24762V3.66561C10.0805 3.15949 9.67024 2.74921 9.16413 2.74921Z" stroke="#6B7280" stroke-width="0.687302" stroke-linecap="round" stroke-linejoin="round"/>
</g>
<defs>
<clipPath id="clip0_7126_3489">
<rect width="10.9968" height="10.9968" fill="white"/>
</clipPath>
</defs>
</svg>
