<svg width="20" height="20" viewBox="0 0 20 20" fill="none" xmlns="http://www.w3.org/2000/svg">
<path d="M12.0773 3.33154H7.91278L5.83052 5.83025H3.33182C2.89002 5.83025 2.46632 6.00575 2.15392 6.31815C1.84152 6.63055 1.66602 7.05425 1.66602 7.49605V14.9922C1.66602 15.434 1.84152 15.8577 2.15392 16.1701C2.46632 16.4825 2.89002 16.658 3.33182 16.658H16.6582C17.1 16.658 17.5237 16.4825 17.8361 16.1701C18.1485 15.8577 18.3241 15.434 18.3241 14.9922V7.49605C18.3241 7.05425 18.1485 6.63055 17.8361 6.31815C17.5237 6.00575 17.1 5.83025 16.6582 5.83025H14.1595L12.0773 3.33154Z" stroke="#6B7280" stroke-width="1.24935" stroke-linecap="round" stroke-linejoin="round"/>
<path d="M9.9948 13.3265C11.3748 13.3265 12.4935 12.2078 12.4935 10.8278C12.4935 9.44781 11.3748 8.3291 9.9948 8.3291C8.6148 8.3291 7.49609 9.44781 7.49609 10.8278C7.49609 12.2078 8.6148 13.3265 9.9948 13.3265Z" stroke="#6B7280" stroke-width="1.24935" stroke-linecap="round" stroke-linejoin="round"/>
</svg>
