<svg width="28" height="28" viewBox="0 0 28 28" fill="none" xmlns="http://www.w3.org/2000/svg">
<path d="M3.47728 15.5035C2.33472 17.5662 2.33472 20.4167 2.33472 20.4167H4.64535M3.47728 15.5035C3.50138 11.6667 4.08472 8.16667 7 5.25L15.1681 5.25C19.2514 7.58333 20.4181 10.5 20.4181 10.5L25.6681 14V20.4167H23.3345M3.47728 15.5035C3.47728 15.5035 4.66805 13.4167 7 13.4167M18.6622 20.4167L9.31763 20.4167" stroke="#030712" stroke-width="1.5" stroke-linejoin="round"/>
<path d="M9.33341 20.4166C9.33341 21.7052 8.28875 22.7499 7.00008 22.7499C5.71142 22.7499 4.66675 21.7052 4.66675 20.4166C4.66675 19.1279 5.71142 18.0833 7.00008 18.0833C8.28875 18.0833 9.33341 19.1279 9.33341 20.4166Z" stroke="#030712" stroke-width="1.5" stroke-linejoin="round"/>
<path d="M23.3334 20.4166C23.3334 21.7052 22.2887 22.7499 21.0001 22.7499C19.7114 22.7499 18.6667 21.7052 18.6667 20.4166C18.6667 19.1279 19.7114 18.0833 21.0001 18.0833C22.2887 18.0833 23.3334 19.1279 23.3334 20.4166Z" stroke="#030712" stroke-width="1.5" stroke-linejoin="round"/>
<path d="M20.4167 10.5L9.91725 10.5L9.91675 5.25" stroke="#030712" stroke-width="1.5" stroke-linejoin="round"/>
<path d="M9.33325 13.4167H11.0833" stroke="#030712" stroke-width="1.5" stroke-linejoin="round"/>
</svg>
