<svg width="18" height="18" viewBox="0 0 18 18" fill="none" xmlns="http://www.w3.org/2000/svg">
<path d="M2.97704 10.8521L8.60204 5.2271C8.65428 5.17484 8.71632 5.13339 8.7846 5.1051C8.85289 5.07682 8.92609 5.06226 9.00001 5.06226C9.07393 5.06226 9.14713 5.07682 9.21541 5.1051C9.2837 5.13339 9.34574 5.17484 9.39798 5.2271L15.023 10.8521C15.1285 10.9577 15.1878 11.1008 15.1878 11.2501C15.1878 11.3993 15.1285 11.5425 15.023 11.648C14.9175 11.7536 14.7743 11.8129 14.625 11.8129C14.4758 11.8129 14.3326 11.7536 14.227 11.648L9.00001 6.42031L3.77298 11.648C3.72074 11.7003 3.6587 11.7417 3.59041 11.77C3.52213 11.7983 3.44893 11.8129 3.37501 11.8129C3.30109 11.8129 3.22789 11.7983 3.15961 11.77C3.09132 11.7417 3.02928 11.7003 2.97704 11.648C2.9248 11.5958 2.88335 11.5337 2.85506 11.4654C2.82678 11.3972 2.81222 11.324 2.81222 11.2501C2.81222 11.1761 2.82678 11.103 2.85506 11.0347C2.88335 10.9664 2.9248 10.9044 2.97704 10.8521Z" fill="#030712"/>
</svg>
