<svg width="11" height="11" viewBox="0 0 11 11" fill="none" xmlns="http://www.w3.org/2000/svg">
<g clip-path="url(#clip0_7126_6049)">
<path d="M9.98925 4.58203C10.1985 5.60899 10.0494 6.67666 9.56672 7.60698C9.08406 8.5373 8.29706 9.27403 7.33696 9.69432C6.37685 10.1146 5.30168 10.1931 4.29074 9.91658C3.2798 9.64009 2.39419 9.02539 1.78162 8.17498C1.16904 7.32457 0.866519 6.28985 0.924501 5.24339C0.982483 4.19692 1.39746 3.20197 2.10024 2.42444C2.80302 1.64691 3.75111 1.1338 4.7864 0.970693C5.8217 0.807584 6.88163 1.00433 7.78943 1.52812" stroke="white" stroke-width="1.3746" stroke-linecap="round" stroke-linejoin="round"/>
<path d="M4.12402 5.0402L5.49863 6.41481L10.0806 1.83279" stroke="white" stroke-width="1.3746" stroke-linecap="round" stroke-linejoin="round"/>
</g>
<defs>
<clipPath id="clip0_7126_6049">
<rect width="10.9968" height="10.9968" fill="white"/>
</clipPath>
</defs>
</svg>
