<svg width="14" height="14" viewBox="0 0 14 14" fill="none" xmlns="http://www.w3.org/2000/svg">
<g clip-path="url(#clip0_7126_5850)">
<path d="M12.7121 5.83086C12.9784 7.13776 12.7886 8.49646 12.1744 9.68037C11.5602 10.8643 10.5586 11.8018 9.33683 12.3367C8.11501 12.8716 6.74676 12.9714 5.46025 12.6195C4.17374 12.2677 3.04673 11.4854 2.26717 10.4032C1.48761 9.32098 1.10263 8.00422 1.17641 6.6725C1.2502 5.34078 1.7783 4.07461 2.67265 3.08514C3.56699 2.09566 4.77352 1.44269 6.09103 1.23512C7.40854 1.02755 8.75738 1.27792 9.91263 1.94449" stroke="#16A34A" stroke-width="0.874652" stroke-linecap="round" stroke-linejoin="round"/>
<path d="M5.24805 6.41423L6.99735 8.16353L12.8284 2.33252" stroke="#16A34A" stroke-width="0.874652" stroke-linecap="round" stroke-linejoin="round"/>
</g>
<defs>
<clipPath id="clip0_7126_5850">
<rect width="13.9944" height="13.9944" fill="white"/>
</clipPath>
</defs>
</svg>
