<svg width="20" height="20" viewBox="0 0 20 20" fill="none" xmlns="http://www.w3.org/2000/svg">
<g clip-path="url(#clip0_7126_5640)">
<path d="M18.3332 9.99984C18.3332 14.6022 14.6022 18.3332 9.99984 18.3332C5.39746 18.3332 1.6665 14.6022 1.6665 9.99984C1.6665 5.39746 5.39746 1.6665 9.99984 1.6665C14.6022 1.6665 18.3332 5.39746 18.3332 9.99984Z" stroke="#6B7280" stroke-width="1.5" stroke-linejoin="round"/>
<path d="M10 5.4165V6.6665M10 6.6665C8.73435 6.6665 7.70833 7.44038 7.70833 8.39494C7.70833 9.34951 8.33333 9.87643 10 9.87643C11.6667 9.87643 12.5 10.3703 12.5 11.6048C12.5 12.8394 11.3807 13.3332 10 13.3332M10 6.6665C11.2657 6.6665 12.2917 7.44038 12.2917 8.39494M10 13.3332V14.5832M10 13.3332C8.61929 13.3332 7.5 12.5594 7.5 11.6048" stroke="#6B7280" stroke-width="1.5" stroke-linejoin="round"/>
</g>
<defs>
<clipPath id="clip0_7126_5640">
<rect width="20" height="20" fill="white"/>
</clipPath>
</defs>
</svg>
