<svg width="14" height="14" viewBox="0 0 14 14" fill="none" xmlns="http://www.w3.org/2000/svg">
<g clip-path="url(#clip0_7126_12407)">
<path d="M12.3464 3.97212C12.6547 3.66391 12.8279 3.24585 12.8279 2.80992C12.828 2.37398 12.6549 1.95588 12.3467 1.64759C12.0384 1.3393 11.6204 1.16607 11.1844 1.16602C10.7485 1.16596 10.3304 1.33908 10.0221 1.6473L2.24005 9.43112C2.10467 9.5661 2.00454 9.73231 1.9485 9.91509L1.17822 12.4527C1.16315 12.5032 1.16201 12.5567 1.17493 12.6078C1.18784 12.6588 1.21433 12.7054 1.25157 12.7426C1.28882 12.7797 1.33544 12.8061 1.38648 12.819C1.43753 12.8318 1.49109 12.8306 1.54149 12.8154L4.07974 12.0457C4.26234 11.9902 4.42853 11.8907 4.56371 11.7559L12.3464 3.97212Z" stroke="#030712" stroke-width="0.874652" stroke-linecap="round" stroke-linejoin="round"/>
</g>
<defs>
<clipPath id="clip0_7126_12407">
<rect width="13.9944" height="13.9944" fill="white"/>
</clipPath>
</defs>
</svg>
