<svg width="20" height="20" viewBox="0 0 20 20" fill="none" xmlns="http://www.w3.org/2000/svg">
<path d="M1.66675 4.9512C4.58341 7.81094 8.813 6.58534 9.77711 4.9512C9.91892 4.71084 10.0001 4.43178 10.0001 4.13414C10.0001 3.23163 9.25389 2.5 8.33341 2.5C7.41294 2.5 6.66675 3.23163 6.66675 4.13414" stroke="#030712" stroke-width="1.5"/>
<path d="M14.1666 7.44012C14.1666 6.09248 15.0993 5 16.2499 5C17.4005 5 18.3333 6.09248 18.3333 7.44012C18.3333 8.03767 18.1499 8.58505 17.8454 9.00927C16.1218 11.8263 7.73025 10.7637 3.33325 9.88023" stroke="#030712" stroke-width="1.5"/>
<path d="M10.9046 16.5728C11.0762 17.113 11.5392 17.5 12.0834 17.5C12.7738 17.5 13.3334 16.8773 13.3334 16.1091C13.3334 15.848 13.2687 15.6036 13.1562 15.3948C12.0833 13.327 6.66671 11.9366 1.66675 15.6455" stroke="#030712" stroke-width="1.5"/>
<path d="M15.8333 12.9167H17.4999" stroke="#030712" stroke-width="1.5" stroke-linejoin="round"/>
</svg>
