<svg width="20" height="20" viewBox="0 0 20 20" fill="none" xmlns="http://www.w3.org/2000/svg">
<g clip-path="url(#clip0_7336_1530)">
<path d="M18.7903 10.2031C18.7903 9.55347 18.732 8.92879 18.6237 8.3291H9.99482V11.8773H14.9256C14.709 13.0183 14.0594 13.9845 13.0849 14.6342V16.9413H16.0583C17.7908 15.3421 18.7903 12.9934 18.7903 10.2031Z" fill="#4285F4"/>
<path d="M9.99482 19.1567C12.4685 19.1567 14.5425 18.3405 16.0583 16.9412L13.0849 14.6341C12.2686 15.1838 11.2275 15.5169 9.99482 15.5169C7.61272 15.5169 5.58877 13.9094 4.86415 11.7439H1.81573V14.1093C3.32328 17.0995 6.41334 19.1567 9.99482 19.1567Z" fill="#34A853"/>
<path d="M4.86415 11.7356C4.68091 11.1859 4.57263 10.6029 4.57263 9.99488C4.57263 9.38686 4.68091 8.80383 4.86415 8.25411V5.88867H1.81573C1.19105 7.12137 0.832901 8.51231 0.832901 9.99488C0.832901 11.4774 1.19105 12.8684 1.81573 14.1011L4.18949 12.252L4.86415 11.7356Z" fill="#FBBC05"/>
<path d="M9.99482 4.48112C11.3441 4.48112 12.5435 4.94754 13.5013 5.84708L16.125 3.22344C14.5341 1.74087 12.4685 0.833008 9.99482 0.833008C6.41334 0.833008 3.32328 2.89028 1.81573 5.88872L4.86415 8.25416C5.58877 6.08862 7.61272 4.48112 9.99482 4.48112Z" fill="#EA4335"/>
</g>
<defs>
<clipPath id="clip0_7336_1530">
<rect width="19.9896" height="19.9896" fill="white"/>
</clipPath>
</defs>
</svg>
