<svg width="32" height="32" viewBox="0 0 32 32" fill="none" xmlns="http://www.w3.org/2000/svg">
<path d="M27.4138 12.3076C28.1565 13.5578 28.6441 14.9429 28.8481 16.3827C29.0522 17.8225 28.9687 19.2885 28.6026 20.6958C28.2365 22.1032 27.5949 23.4239 26.7151 24.5818C25.8352 25.7396 24.7345 26.7114 23.4766 27.4411C22.2188 28.1708 20.8287 28.6439 19.3868 28.8329C17.945 29.022 16.48 28.9232 15.0765 28.5424C13.673 28.1616 12.359 27.5063 11.2105 26.6144C10.0619 25.7226 9.10154 24.6118 8.385 23.3464L3.26875 14.4851C3.02539 14.0275 2.96914 13.4934 3.11188 12.9951C3.25461 12.4969 3.58518 12.0736 4.03392 11.8143C4.48266 11.555 5.01453 11.48 5.51746 11.6051C6.02039 11.7303 6.45511 12.0458 6.73001 12.4851L9.05 16.5001C9.11567 16.6139 9.20309 16.7136 9.30729 16.7936C9.41148 16.8735 9.53041 16.9322 9.65728 16.9662C9.78415 17.0002 9.91647 17.0089 10.0467 16.9918C10.1769 16.9746 10.3025 16.932 10.4163 16.8664C10.53 16.8007 10.6297 16.7133 10.7097 16.6091C10.7897 16.5049 10.8483 16.386 10.8823 16.2591C10.9163 16.1322 10.925 15.9999 10.9079 15.8697C10.8908 15.7395 10.8482 15.6139 10.7825 15.5001L5.87501 7.00012C5.63164 6.54255 5.57539 6.00837 5.71813 5.51014C5.86086 5.01192 6.19143 4.58856 6.64017 4.32926C7.08891 4.06997 7.62078 3.99499 8.12371 4.12014C8.62664 4.24528 9.06136 4.56077 9.33626 5.00012L14.25 13.5001C14.3137 13.6175 14.4003 13.7209 14.5046 13.8042C14.609 13.8876 14.7289 13.9492 14.8575 13.9854C14.986 14.0216 15.1205 14.0318 15.253 14.0152C15.3855 13.9986 15.5133 13.9556 15.629 13.8888C15.7446 13.8221 15.8457 13.7328 15.9263 13.6263C16.0068 13.5198 16.0653 13.3982 16.0981 13.2688C16.1309 13.1394 16.1375 13.0047 16.1174 12.8726C16.0974 12.7406 16.0511 12.614 15.9813 12.5001L12.2313 6.00012C11.9738 5.54125 11.9075 4.99941 12.0468 4.49203C12.1861 3.98464 12.5197 3.55258 12.9754 3.28948C13.431 3.02638 13.972 2.95344 14.4811 3.08646C14.9902 3.21948 15.4263 3.54774 15.695 4.00012L20.75 12.7651C19.6322 13.8916 19.0035 15.4132 19 17.0001C18.9963 18.2989 19.4177 19.5633 20.2 20.6001C20.278 20.7074 20.3766 20.7981 20.49 20.867C20.6034 20.9358 20.7293 20.9814 20.8605 21.001C20.9917 21.0207 21.1255 21.0141 21.2541 20.9816C21.3827 20.9491 21.5035 20.8913 21.6096 20.8116C21.7156 20.7319 21.8048 20.6319 21.8718 20.5175C21.9388 20.403 21.9824 20.2763 22 20.1448C22.0176 20.0134 22.0089 19.8797 21.9743 19.7516C21.9398 19.6236 21.8801 19.5036 21.7988 19.3989C21.4824 18.9765 21.2528 18.4958 21.1231 17.9843C20.9934 17.4729 20.9661 16.9408 21.0429 16.4188C21.1197 15.8967 21.2991 15.3951 21.5706 14.9426C21.8421 14.4902 22.2005 14.096 22.625 13.7826C22.8224 13.6365 22.9592 13.4229 23.0092 13.1825C23.0592 12.942 23.019 12.6916 22.8963 12.4789L21.4638 10.0001C21.2063 9.54125 21.14 8.99941 21.2793 8.49203C21.4186 7.98464 21.7522 7.55258 22.2079 7.28948C22.6635 7.02638 23.2045 6.95344 23.7136 7.08646C24.2227 7.21948 24.6588 7.54774 24.9275 8.00012L27.4138 12.3076ZM23.7425 5.18262C24.4432 5.36725 25.1001 5.68931 25.6752 6.13008C26.2503 6.57084 26.7321 7.12153 27.0925 7.75012L27.1338 7.82137C27.2664 8.05111 27.4848 8.21877 27.741 8.28745C27.8679 8.32146 28.0002 8.33015 28.1304 8.31302C28.2607 8.29589 28.3862 8.25328 28.5 8.18762C28.6138 8.12196 28.7135 8.03453 28.7934 7.93034C28.8734 7.82614 28.9321 7.70721 28.9661 7.58035C29.0001 7.45348 29.0088 7.32115 28.9917 7.19093C28.9745 7.0607 28.9319 6.93513 28.8663 6.82137L28.825 6.75012C28.3335 5.89321 27.6767 5.14252 26.8926 4.54167C26.1085 3.94082 25.2128 3.5018 24.2575 3.25012C24.002 3.18404 23.7307 3.22166 23.5028 3.35479C23.2749 3.48791 23.1088 3.70573 23.0409 3.96077C22.9729 4.2158 23.0085 4.48736 23.14 4.71625C23.2714 4.94513 23.488 5.11277 23.7425 5.18262ZM9.9475 28.2151C8.65171 27.1925 7.56342 25.9315 6.74126 24.5001C6.67559 24.3864 6.58817 24.2866 6.48397 24.2067C6.37978 24.1267 6.26085 24.068 6.13398 24.034C6.00711 24 5.87479 23.9913 5.74456 24.0085C5.61434 24.0256 5.48876 24.0682 5.37501 24.1339C5.26125 24.1995 5.16154 24.287 5.08157 24.3911C5.00159 24.4953 4.94293 24.6143 4.90892 24.7411C4.87491 24.868 4.86622 25.0003 4.88335 25.1306C4.90048 25.2608 4.94309 25.3864 5.00875 25.5001C5.95782 27.1511 7.21368 28.6056 8.70875 29.7851C8.91728 29.9455 9.18063 30.0173 9.44172 29.9849C9.70282 29.9525 9.94062 29.8185 10.1036 29.612C10.2666 29.4054 10.3416 29.143 10.3123 28.8815C10.2831 28.62 10.152 28.3806 9.9475 28.2151Z" fill="#030712"/>
</svg>
