<svg width="18" height="18" viewBox="0 0 18 18" fill="none" xmlns="http://www.w3.org/2000/svg">
<g clip-path="url(#clip0_7126_11816)">
<path d="M8.99303 16.4868C13.1319 16.4868 16.487 13.1316 16.487 8.99279C16.487 4.85396 13.1319 1.49878 8.99303 1.49878C4.85421 1.49878 1.49902 4.85396 1.49902 8.99279C1.49902 13.1316 4.85421 16.4868 8.99303 16.4868Z" stroke="#030712" stroke-width="1.1241" stroke-linecap="round" stroke-linejoin="round"/>
<path d="M6.8125 6.74459C6.98869 6.24374 7.33645 5.82141 7.79418 5.55239C8.25192 5.28337 8.79009 5.18504 9.31338 5.2748C9.83668 5.36456 10.3113 5.63662 10.6532 6.04279C10.9952 6.44897 11.1823 6.96305 11.1815 7.49399C11.1815 8.99279 8.9333 9.74219 8.9333 9.74219" stroke="#030712" stroke-width="1.1241" stroke-linecap="round" stroke-linejoin="round"/>
<path d="M8.99316 12.7398H9.00066" stroke="#030712" stroke-width="1.1241" stroke-linecap="round" stroke-linejoin="round"/>
</g>
<defs>
<clipPath id="clip0_7126_11816">
<rect width="17.9856" height="17.9856" fill="white"/>
</clipPath>
</defs>
</svg>
