<svg width="16" height="16" viewBox="0 0 16 16" fill="none" xmlns="http://www.w3.org/2000/svg">
<path d="M9.99912 13.9987V8.66587C9.99912 8.48908 9.92889 8.31952 9.80388 8.19451C9.67887 8.0695 9.50932 7.99927 9.33252 7.99927H6.66611C6.48932 7.99927 6.31977 8.0695 6.19476 8.19451C6.06974 8.31952 5.99951 8.48908 5.99951 8.66587V13.9987" stroke="#030712" stroke-width="0.999903" stroke-linecap="round" stroke-linejoin="round"/>
<path d="M2 6.66597C1.99995 6.47203 2.04222 6.28042 2.12385 6.1045C2.20547 5.92858 2.3245 5.77258 2.47262 5.6474L7.13884 1.64845C7.37947 1.44508 7.68435 1.3335 7.99942 1.3335C8.31448 1.3335 8.61937 1.44508 8.86 1.64845L13.5262 5.6474C13.6743 5.77258 13.7934 5.92858 13.875 6.1045C13.9566 6.28042 13.9989 6.47203 13.9988 6.66597V12.6654C13.9988 13.019 13.8584 13.3581 13.6084 13.6081C13.3583 13.8581 13.0192 13.9986 12.6656 13.9986H3.3332C2.97962 13.9986 2.64051 13.8581 2.39049 13.6081C2.14046 13.3581 2 13.019 2 12.6654V6.66597Z" stroke="#030712" stroke-width="0.999903" stroke-linecap="round" stroke-linejoin="round"/>
</svg>
