<svg width="18" height="18" viewBox="0 0 18 18" fill="none" xmlns="http://www.w3.org/2000/svg">
<path d="M16.875 14.6252H15.75V9.56268L15.9145 9.72721C16.0203 9.83276 16.1636 9.89198 16.313 9.89185C16.4624 9.89172 16.6056 9.83224 16.7112 9.72651C16.8167 9.62078 16.8759 9.47744 16.8758 9.32804C16.8757 9.17865 16.8162 9.03542 16.7105 8.92987L9.79523 2.01674C9.58428 1.80593 9.29824 1.6875 9 1.6875C8.70176 1.6875 8.41572 1.80593 8.20477 2.01674L1.28953 8.92987C1.18408 9.03542 1.12487 9.17853 1.12494 9.32774C1.125 9.47694 1.18433 9.62 1.28988 9.72546C1.39543 9.83091 1.53855 9.89012 1.68775 9.89005C1.83695 9.88999 1.98001 9.83065 2.08547 9.7251L2.25 9.56268V14.6252H1.125C0.975816 14.6252 0.832742 14.6844 0.727252 14.7899C0.621763 14.8954 0.5625 15.0385 0.5625 15.1877C0.5625 15.3369 0.621763 15.4799 0.727252 15.5854C0.832742 15.6909 0.975816 15.7502 1.125 15.7502H16.875C17.0242 15.7502 17.1673 15.6909 17.2727 15.5854C17.3782 15.4799 17.4375 15.3369 17.4375 15.1877C17.4375 15.0385 17.3782 14.8954 17.2727 14.7899C17.1673 14.6844 17.0242 14.6252 16.875 14.6252ZM10.6875 14.6252H7.3125V11.2502C7.3125 11.1756 7.34213 11.1041 7.39488 11.0513C7.44762 10.9986 7.51916 10.9689 7.59375 10.9689H10.4062C10.4808 10.9689 10.5524 10.9986 10.6051 11.0513C10.6579 11.1041 10.6875 11.1756 10.6875 11.2502V14.6252Z" fill="#030712"/>
</svg>
