<svg width="44" height="44" viewBox="0 0 44 44" fill="none" xmlns="http://www.w3.org/2000/svg">
<path d="M7.33211 25.6624C6.98523 25.6636 6.64515 25.5663 6.35135 25.3819C6.05756 25.1975 5.82212 24.9335 5.67239 24.6206C5.52266 24.3077 5.46479 23.9587 5.50549 23.6143C5.5462 23.2698 5.68381 22.9439 5.90235 22.6746L24.0493 3.97767C24.1854 3.82055 24.3709 3.71437 24.5754 3.67657C24.7798 3.63876 24.991 3.67158 25.1743 3.76963C25.3576 3.86768 25.5021 4.02514 25.5842 4.21617C25.6662 4.40719 25.6809 4.62042 25.6257 4.82087L22.1063 15.8557C22.0025 16.1334 21.9677 16.4322 22.0047 16.7264C22.0418 17.0206 22.1497 17.3014 22.3191 17.5447C22.4885 17.788 22.7145 17.9866 22.9775 18.1234C23.2405 18.2603 23.5329 18.3312 23.8294 18.3303H36.6605C37.0074 18.3291 37.3475 18.4264 37.6413 18.6108C37.9351 18.7952 38.1705 19.0592 38.3203 19.3721C38.47 19.685 38.5279 20.0339 38.4872 20.3784C38.4465 20.7229 38.3088 21.0487 38.0903 21.3181L19.9433 40.015C19.8072 40.1721 19.6217 40.2783 19.4173 40.3161C19.2129 40.3539 19.0017 40.3211 18.8184 40.223C18.635 40.125 18.4905 39.9675 18.4085 39.7765C18.3264 39.5855 18.3118 39.3722 18.3669 39.1718L21.8863 28.137C21.9901 27.8592 22.025 27.5605 21.9879 27.2663C21.9508 26.9721 21.843 26.6913 21.6735 26.448C21.5041 26.2046 21.2782 26.0061 21.0152 25.8692C20.7521 25.7324 20.4598 25.6614 20.1633 25.6624H7.33211Z" fill="#F9FAFB" stroke="#F9FAFB" stroke-width="4.58257" stroke-linecap="round" stroke-linejoin="round"/>
</svg>
