<svg width="16" height="16" viewBox="0 0 16 16" fill="none" xmlns="http://www.w3.org/2000/svg">
<path fill-rule="evenodd" clip-rule="evenodd" d="M7.99992 1.09246C4.6183 1.09246 1.83325 3.70469 1.83325 6.9796C1.83325 8.78467 2.71804 10.1171 3.78234 11.2525C4.23883 11.7396 4.74156 12.2039 5.22963 12.6547L5.23018 12.6552C5.30747 12.7265 5.38439 12.7976 5.4607 12.8683C6.02626 13.3926 6.56366 13.9049 7.02339 14.4516C7.52292 15.0456 8.47378 15.0655 8.99045 14.4743C9.46212 13.9347 10.0053 13.4209 10.5727 12.8906L10.6765 12.7936C11.2057 12.2993 11.7525 11.7885 12.2452 11.2495C13.2986 10.0971 14.1666 8.75047 14.1666 6.9796C14.1666 3.70469 11.3815 1.09246 7.99992 1.09246ZM7.99992 4.59246C6.52716 4.59246 5.33325 5.78637 5.33325 7.25913C5.33325 8.73187 6.52716 9.9258 7.99992 9.9258C9.47265 9.9258 10.6666 8.73187 10.6666 7.25913C10.6666 5.78637 9.47265 4.59246 7.99992 4.59246Z" fill="#1D4ED8"/>
</svg>
