<svg width="28" height="28" viewBox="0 0 28 28" fill="none" xmlns="http://www.w3.org/2000/svg">
<path d="M4.75001 9C4.75001 9.41421 5.08579 9.75 5.50001 9.75C5.91422 9.75 6.25001 9.41421 6.25001 9H5.50001H4.75001ZM13.75 9C13.75 9.41421 14.0858 9.75 14.5 9.75C14.9142 9.75 15.25 9.41421 15.25 9H14.5H13.75ZM2 9V8.25H1.25V9H2ZM2 22H1.25V22.75H2V22ZM18 9H18.75V8.25H18V9ZM5.50001 9H6.25001V6.5H5.50001H4.75001V9H5.50001ZM14.5 6.5H13.75V9H14.5H15.25V6.5H14.5ZM10 2V2.75C12.0711 2.75 13.75 4.42893 13.75 6.5H14.5H15.25C15.25 3.6005 12.8995 1.25 10 1.25V2ZM5.50001 6.5H6.25001C6.25001 4.42893 7.92894 2.75 10 2.75V2V1.25C7.10051 1.25 4.75001 3.6005 4.75001 6.5H5.50001ZM2 9H1.25V22H2H2.75V9H2ZM2 22V22.75H8V22V21.25H2V22ZM18 9V8.25H2V9V9.75H18V9ZM18 9H17.25V11H18H18.75V9H18Z" fill="#030712"/>
<path d="M22.8825 15.75L23.4129 15.2197C23.12 14.9268 22.6451 14.9268 22.3522 15.2197L22.8825 15.75ZM17.3141 24.9126L16.7886 24.3775C16.0553 25.0975 14.8608 25.0975 14.1275 24.3775L13.602 24.9126L13.0766 25.4478C14.3934 26.7407 16.5227 26.7407 17.8395 25.4478L17.3141 24.9126ZM13.602 24.9126L14.1275 24.3775C13.4018 23.6649 13.4018 22.5155 14.1275 21.803L13.602 21.2678L13.0766 20.7327C11.7521 22.0331 11.7521 24.1473 13.0766 25.4478L13.602 24.9126ZM13.602 21.2678L14.1275 21.803C14.8608 21.0829 16.0553 21.0829 16.7886 21.803L17.3141 21.2678L17.8395 20.7327C16.5227 19.4397 14.3934 19.4397 13.0766 20.7327L13.602 21.2678ZM17.3141 21.2678L16.7886 21.803C17.5143 22.5155 17.5143 23.6649 16.7886 24.3775L17.3141 24.9126L17.8395 25.4478C19.1639 24.1473 19.1639 22.0331 17.8395 20.7327L17.3141 21.2678ZM17.3141 21.2678L17.8395 21.803L20.624 19.0692L20.0986 18.534L19.5731 17.9988L16.7886 20.7326L17.3141 21.2678ZM20.0986 18.534L19.5731 19.0691L21.4291 20.8915L21.9546 20.3564L22.48 19.8212L20.624 17.9988L20.0986 18.534ZM20.0986 18.534L20.6289 19.0643L23.4129 16.2803L22.8825 15.75L22.3522 15.2197L19.5682 18.0036L20.0986 18.534ZM22.8825 15.75L22.3522 16.2803L25.1363 19.0643L25.6666 18.534L26.1969 18.0036L23.4129 15.2197L22.8825 15.75Z" fill="#030712"/>
</svg>
