<svg width="18" height="18" viewBox="0 0 18 18" fill="none" xmlns="http://www.w3.org/2000/svg">
<path d="M7.69531 15.7374C7.82686 15.9653 8.01607 16.1544 8.24391 16.286C8.47175 16.4175 8.73019 16.4868 8.99328 16.4868C9.25636 16.4868 9.5148 16.4175 9.74264 16.286C9.97048 16.1544 10.1597 15.9653 10.2912 15.7374" stroke="#030712" stroke-width="1.1241" stroke-linecap="round" stroke-linejoin="round"/>
<path d="M2.44482 11.4853C2.34692 11.5926 2.28231 11.726 2.25886 11.8694C2.2354 12.0127 2.25411 12.1598 2.3127 12.2927C2.3713 12.4256 2.46725 12.5386 2.5889 12.618C2.71054 12.6974 2.85263 12.7397 2.99788 12.7398H14.9883C15.1335 12.7398 15.2756 12.6977 15.3974 12.6185C15.5191 12.5392 15.6152 12.4264 15.6739 12.2935C15.7327 12.1607 15.7516 12.0137 15.7283 11.8703C15.705 11.727 15.6406 11.5935 15.5429 11.486C14.5461 10.4586 13.4895 9.36674 13.4895 5.99519C13.4895 4.80266 13.0158 3.65899 12.1725 2.81575C11.3293 1.97251 10.1856 1.49878 8.99309 1.49878C7.80056 1.49878 6.65689 1.97251 5.81365 2.81575C4.97041 3.65899 4.49668 4.80266 4.49668 5.99519C4.49668 9.36674 3.43927 10.4586 2.44482 11.4853Z" stroke="#030712" stroke-width="1.1241" stroke-linecap="round" stroke-linejoin="round"/>
</svg>
