<svg width="24" height="24" viewBox="0 0 24 24" fill="none" xmlns="http://www.w3.org/2000/svg">
<path d="M2 17V16.25H1.25V17H2ZM16 17H16.75V16.25H16V17ZM22 2H22.75C22.75 1.58579 22.4142 1.25 22 1.25V2ZM6 2V1.25C5.58579 1.25 5.25 1.58579 5.25 2H6ZM19 22V21.25H5V22V22.75H19V22ZM2 19H2.75V17H2H1.25V19H2ZM5 22V21.25C3.75736 21.25 2.75 20.2426 2.75 19H2H1.25C1.25 21.0711 2.92893 22.75 5 22.75V22ZM16 17H15.25V19H16H16.75V17H16ZM22 19H22.75V2H22H21.25V19H22ZM19 22V22.75C21.0711 22.75 22.75 21.0711 22.75 19H22H21.25C21.25 20.2426 20.2426 21.25 19 21.25V22ZM16 19H15.25C15.25 21.0711 16.9289 22.75 19 22.75V22V21.25C17.7574 21.25 16.75 20.2426 16.75 19H16ZM22 2V1.25H6V2V2.75H22V2ZM2 17V17.75H6V17V16.25H2V17ZM6 17V17.75H16V17V16.25H6V17ZM6 2H5.25V17H6H6.75V2H6Z" fill="#6B7280"/>
<path d="M10.5 7H17.5" stroke="#6B7280" stroke-width="1.5"/>
<path d="M10.5 11H14" stroke="#6B7280" stroke-width="1.5"/>
</svg>
