<svg width="17" height="17" viewBox="0 0 17 17" fill="none" xmlns="http://www.w3.org/2000/svg">
<path d="M15.5759 11.9794V14.1034C15.5767 14.3006 15.5363 14.4957 15.4574 14.6764C15.3784 14.8571 15.2625 15.0192 15.1172 15.1525C14.9719 15.2858 14.8004 15.3873 14.6136 15.4505C14.4268 15.5137 14.2289 15.5371 14.0325 15.5194C11.8539 15.2827 9.76112 14.5382 7.92244 13.3458C6.21178 12.2588 4.76145 10.8085 3.67443 9.09781C2.47789 7.25078 1.73326 5.14787 1.50086 2.95944C1.48317 2.76365 1.50644 2.56633 1.56919 2.38002C1.63193 2.19372 1.73278 2.02253 1.86532 1.87734C1.99785 1.73215 2.15917 1.61615 2.33899 1.53672C2.51881 1.45729 2.7132 1.41618 2.90979 1.41599H5.03379C5.37739 1.41261 5.71049 1.53428 5.97102 1.75833C6.23154 1.98238 6.40171 2.29352 6.44979 2.63376C6.53944 3.31348 6.7057 3.98089 6.9454 4.62324C7.04065 4.87665 7.06127 5.15206 7.0048 5.41682C6.94833 5.68159 6.81715 5.92463 6.62679 6.11712L5.72763 7.01628C6.73551 8.7888 8.20313 10.2564 9.97564 11.2643L10.8748 10.3651C11.0673 10.1748 11.3103 10.0436 11.5751 9.98713C11.8399 9.93066 12.1153 9.95127 12.3687 10.0465C13.011 10.2862 13.6784 10.4525 14.3582 10.5421C14.7021 10.5907 15.0162 10.7639 15.2407 11.0289C15.4652 11.2939 15.5846 11.6322 15.5759 11.9794Z" stroke="#16A34A" stroke-width="1.062" stroke-linecap="round" stroke-linejoin="round"/>
</svg>
