<svg width="14" height="14" viewBox="0 0 14 14" fill="none" xmlns="http://www.w3.org/2000/svg">
<path d="M11.0791 1.74951H2.91571C2.27164 1.74951 1.74951 2.27164 1.74951 2.91571V11.0791C1.74951 11.7232 2.27164 12.2453 2.91571 12.2453H11.0791C11.7232 12.2453 12.2453 11.7232 12.2453 11.0791V2.91571C12.2453 2.27164 11.7232 1.74951 11.0791 1.74951Z" stroke="#0A0A0A" stroke-width="0.874652" stroke-linecap="round" stroke-linejoin="round"/>
<path d="M5.24775 6.41395C5.89182 6.41395 6.41395 5.89182 6.41395 5.24775C6.41395 4.60367 5.89182 4.08154 5.24775 4.08154C4.60367 4.08154 4.08154 4.60367 4.08154 5.24775C4.08154 5.89182 4.60367 6.41395 5.24775 6.41395Z" stroke="#0A0A0A" stroke-width="0.874652" stroke-linecap="round" stroke-linejoin="round"/>
<path d="M12.2451 8.74637L10.4456 6.94692C10.2269 6.72829 9.93033 6.60547 9.6211 6.60547C9.31186 6.60547 9.01529 6.72829 8.79659 6.94692L3.49854 12.245" stroke="#0A0A0A" stroke-width="0.874652" stroke-linecap="round" stroke-linejoin="round"/>
</svg>
