<svg width="10" height="10" viewBox="0 0 10 10" fill="none" xmlns="http://www.w3.org/2000/svg">
<g clip-path="url(#clip0_7126_3517)">
<path d="M8.32215 4.16101C8.32215 6.2386 6.01737 8.40232 5.24343 9.07058C5.17133 9.12479 5.08356 9.15411 4.99335 9.15411C4.90314 9.15411 4.81537 9.12479 4.74327 9.07058C3.96933 8.40232 1.66455 6.2386 1.66455 4.16101C1.66455 3.27816 2.01526 2.43147 2.63953 1.8072C3.2638 1.18293 4.1105 0.832214 4.99335 0.832214C5.8762 0.832214 6.7229 1.18293 7.34717 1.8072C7.97144 2.43147 8.32215 3.27816 8.32215 4.16101Z" stroke="#16A34A" stroke-width="0.8322" stroke-linecap="round" stroke-linejoin="round"/>
<path d="M4.99342 5.40929C5.68283 5.40929 6.24172 4.85041 6.24172 4.16099C6.24172 3.47157 5.68283 2.91269 4.99342 2.91269C4.304 2.91269 3.74512 3.47157 3.74512 4.16099C3.74512 4.85041 4.304 5.40929 4.99342 5.40929Z" stroke="#16A34A" stroke-width="0.8322" stroke-linecap="round" stroke-linejoin="round"/>
</g>
<defs>
<clipPath id="clip0_7126_3517">
<rect width="9.9864" height="9.9864" fill="white"/>
</clipPath>
</defs>
</svg>
