<svg width="14" height="14" viewBox="0 0 14 14" fill="none" xmlns="http://www.w3.org/2000/svg">
<g clip-path="url(#clip0_7126_5132)">
<path d="M7.33873 1.50771C7.12007 1.28899 6.82349 1.16608 6.51422 1.16602H2.33222C2.02292 1.16602 1.72629 1.28888 1.50759 1.50759C1.28888 1.72629 1.16602 2.02292 1.16602 2.33222V6.51422C1.16608 6.82349 1.28899 7.12007 1.50771 7.33873L6.58303 12.414C6.84805 12.6774 7.20651 12.8252 7.58013 12.8252C7.95375 12.8252 8.31221 12.6774 8.57723 12.414L12.414 8.57723C12.6774 8.31221 12.8252 7.95375 12.8252 7.58013C12.8252 7.20651 12.6774 6.84805 12.414 6.58303L7.33873 1.50771Z" stroke="#6B7280" stroke-width="0.874652" stroke-linecap="round" stroke-linejoin="round"/>
<path d="M4.37309 4.66464C4.53411 4.66464 4.66464 4.53411 4.66464 4.37309C4.66464 4.21207 4.53411 4.08154 4.37309 4.08154C4.21207 4.08154 4.08154 4.21207 4.08154 4.37309C4.08154 4.53411 4.21207 4.66464 4.37309 4.66464Z" fill="#030712" stroke="#6B7280" stroke-width="0.874652" stroke-linecap="round" stroke-linejoin="round"/>
</g>
<defs>
<clipPath id="clip0_7126_5132">
<rect width="13.9944" height="13.9944" fill="white"/>
</clipPath>
</defs>
</svg>
