<svg width="16" height="16" viewBox="0 0 16 16" fill="none" xmlns="http://www.w3.org/2000/svg">
<g clip-path="url(#clip0_7126_6646)">
<path d="M9.6894 14.4559C9.71473 14.5191 9.75875 14.5729 9.81557 14.6103C9.87239 14.6477 9.93928 14.6668 10.0073 14.665C10.0752 14.6633 10.1411 14.6408 10.1959 14.6005C10.2507 14.5603 10.2919 14.5043 10.314 14.4399L14.6469 1.7745C14.6683 1.71543 14.6723 1.65151 14.6587 1.59022C14.645 1.52892 14.6141 1.47279 14.5697 1.42838C14.5253 1.38398 14.4692 1.35314 14.4079 1.33947C14.3466 1.3258 14.2827 1.32987 14.2236 1.35121L1.55819 5.68412C1.49386 5.70618 1.43782 5.74739 1.39759 5.80222C1.35735 5.85705 1.33486 5.92288 1.33312 5.99086C1.33138 6.05885 1.35047 6.12574 1.38784 6.18256C1.42522 6.23937 1.47908 6.2834 1.54219 6.30873L6.82835 8.42852C6.99545 8.49543 7.14728 8.59548 7.27468 8.72265C7.40208 8.84981 7.5024 9.00146 7.56961 9.16845L9.6894 14.4559Z" stroke="#F3F4F6" stroke-width="0.999903" stroke-linecap="round" stroke-linejoin="round"/>
<path d="M14.568 1.43121L7.27539 8.72317" stroke="#F3F4F6" stroke-width="0.999903" stroke-linecap="round" stroke-linejoin="round"/>
</g>
<defs>
<clipPath id="clip0_7126_6646">
<rect width="15.9984" height="15.9984" fill="white"/>
</clipPath>
</defs>
</svg>
