<svg width="18" height="18" viewBox="0 0 18 18" fill="none" xmlns="http://www.w3.org/2000/svg">
<path d="M9.158 1.49878H8.82827C8.43076 1.49878 8.04953 1.65669 7.76845 1.93777C7.48737 2.21885 7.32946 2.60007 7.32946 2.99758V3.13247C7.3292 3.39531 7.25981 3.65345 7.12828 3.881C6.99675 4.10856 6.80769 4.29752 6.58006 4.42894L6.25782 4.61629C6.02998 4.74783 5.77152 4.81709 5.50842 4.81709C5.24533 4.81709 4.98687 4.74783 4.75902 4.61629L4.64661 4.55634C4.30268 4.35794 3.89409 4.30412 3.51052 4.40669C3.12695 4.50925 2.79975 4.75982 2.60074 5.1034L2.43588 5.38817C2.23748 5.7321 2.18366 6.14069 2.28623 6.52426C2.38879 6.90783 2.63937 7.23503 2.98294 7.43404L3.09535 7.50898C3.32188 7.63975 3.51023 7.82754 3.6417 8.05366C3.77317 8.27979 3.84317 8.53638 3.84475 8.79795V9.18014C3.8458 9.44424 3.77704 9.70394 3.64544 9.93292C3.51384 10.1619 3.32407 10.352 3.09535 10.4841L2.98294 10.5515C2.63937 10.7505 2.38879 11.0777 2.28623 11.4613C2.18366 11.8449 2.23748 12.2535 2.43588 12.5974L2.60074 12.8822C2.79975 13.2258 3.12695 13.4763 3.51052 13.5789C3.89409 13.6815 4.30268 13.6276 4.64661 13.4292L4.75902 13.3693C4.98687 13.2377 5.24533 13.1685 5.50842 13.1685C5.77152 13.1685 6.02998 13.2377 6.25782 13.3693L6.58006 13.5566C6.80769 13.6881 6.99675 13.877 7.12828 14.1046C7.25981 14.3321 7.3292 14.5903 7.32946 14.8531V14.988C7.32946 15.3855 7.48737 15.7667 7.76845 16.0478C8.04953 16.3289 8.43076 16.4868 8.82827 16.4868H9.158C9.55551 16.4868 9.93674 16.3289 10.2178 16.0478C10.4989 15.7667 10.6568 15.3855 10.6568 14.988V14.8531C10.6571 14.5903 10.7265 14.3321 10.858 14.1046C10.9895 13.877 11.1786 13.6881 11.4062 13.5566L11.7284 13.3693C11.9563 13.2377 12.2148 13.1685 12.4778 13.1685C12.7409 13.1685 12.9994 13.2377 13.2273 13.3693L13.3397 13.4292C13.6836 13.6276 14.0922 13.6815 14.4758 13.5789C14.8593 13.4763 15.1865 13.2258 15.3855 12.8822L15.5504 12.5899C15.7488 12.246 15.8026 11.8374 15.7 11.4538C15.5975 11.0703 15.3469 10.7431 15.0033 10.544L14.8909 10.4841C14.6622 10.352 14.4724 10.1619 14.3408 9.93292C14.2092 9.70394 14.1405 9.44424 14.1415 9.18014V8.80544C14.1405 8.54134 14.2092 8.28164 14.3408 8.05266C14.4724 7.82368 14.6622 7.63353 14.8909 7.50148L15.0033 7.43404C15.3469 7.23503 15.5975 6.90783 15.7 6.52426C15.8026 6.14069 15.7488 5.7321 15.5504 5.38817L15.3855 5.1034C15.1865 4.75982 14.8593 4.50925 14.4758 4.40669C14.0922 4.30412 13.6836 4.35794 13.3397 4.55634L13.2273 4.61629C12.9994 4.74783 12.7409 4.81709 12.4778 4.81709C12.2148 4.81709 11.9563 4.74783 11.7284 4.61629L11.4062 4.42894C11.1786 4.29752 10.9895 4.10856 10.858 3.881C10.7265 3.65345 10.6571 3.39531 10.6568 3.13247V2.99758C10.6568 2.60007 10.4989 2.21885 10.2178 1.93777C9.93674 1.65669 9.55551 1.49878 9.158 1.49878Z" stroke="#030712" stroke-width="1.1241" stroke-linecap="round" stroke-linejoin="round"/>
<path d="M8.99234 11.241C10.234 11.241 11.2405 10.2345 11.2405 8.99283C11.2405 7.75118 10.234 6.74463 8.99234 6.74463C7.7507 6.74463 6.74414 7.75118 6.74414 8.99283C6.74414 10.2345 7.7507 11.241 8.99234 11.241Z" stroke="#030712" stroke-width="1.1241" stroke-linecap="round" stroke-linejoin="round"/>
</svg>
