<svg width="18" height="18" viewBox="0 0 18 18" fill="none" xmlns="http://www.w3.org/2000/svg">
<path d="M13.4894 5.99519C14.7311 5.99519 15.7376 4.98863 15.7376 3.74698C15.7376 2.50533 14.7311 1.49878 13.4894 1.49878C12.2478 1.49878 11.2412 2.50533 11.2412 3.74698C11.2412 4.98863 12.2478 5.99519 13.4894 5.99519Z" stroke="#CA8A04" stroke-width="1.1241" stroke-linecap="round" stroke-linejoin="round"/>
<path d="M4.49625 11.241C5.7379 11.241 6.74445 10.2345 6.74445 8.99283C6.74445 7.75118 5.7379 6.74463 4.49625 6.74463C3.2546 6.74463 2.24805 7.75118 2.24805 8.99283C2.24805 10.2345 3.2546 11.241 4.49625 11.241Z" stroke="#CA8A04" stroke-width="1.1241" stroke-linecap="round" stroke-linejoin="round"/>
<path d="M13.4894 16.4868C14.7311 16.4868 15.7376 15.4802 15.7376 14.2386C15.7376 12.9969 14.7311 11.9904 13.4894 11.9904C12.2478 11.9904 11.2412 12.9969 11.2412 14.2386C11.2412 15.4802 12.2478 16.4868 13.4894 16.4868Z" stroke="#CA8A04" stroke-width="1.1241" stroke-linecap="round" stroke-linejoin="round"/>
<path d="M6.4375 10.1244L11.5559 13.107" stroke="#CA8A04" stroke-width="1.1241" stroke-linecap="round" stroke-linejoin="round"/>
<path d="M11.5484 4.87854L6.4375 7.86116" stroke="#CA8A04" stroke-width="1.1241" stroke-linecap="round" stroke-linejoin="round"/>
</svg>
