<svg width="14" height="14" viewBox="0 0 14 14" fill="none" xmlns="http://www.w3.org/2000/svg">
<g clip-path="url(#clip0_7126_3964)">
<path d="M11.6621 7.58033C11.6621 10.4958 9.62129 11.9536 7.19558 12.7991C7.06856 12.8421 6.93059 12.8401 6.80491 12.7933C4.37337 11.9536 2.33252 10.4958 2.33252 7.58033V3.49862C2.33252 3.34397 2.39395 3.19566 2.50331 3.08631C2.61266 2.97695 2.76097 2.91552 2.91562 2.91552C4.08182 2.91552 5.53958 2.2158 6.55417 1.32949C6.67771 1.22394 6.83485 1.16595 6.99733 1.16595C7.15981 1.16595 7.31695 1.22394 7.44049 1.32949C8.46091 2.22163 9.91284 2.91552 11.079 2.91552C11.2337 2.91552 11.382 2.97695 11.4914 3.08631C11.6007 3.19566 11.6621 3.34397 11.6621 3.49862V7.58033Z" stroke="#1E40AF" stroke-width="0.874652" stroke-linecap="round" stroke-linejoin="round"/>
</g>
<defs>
<clipPath id="clip0_7126_3964">
<rect width="13.9944" height="13.9944" fill="white"/>
</clipPath>
</defs>
</svg>
