<svg width="15" height="20" viewBox="0 0 15 20" fill="none" xmlns="http://www.w3.org/2000/svg">
<path d="M10.6934 15.0001C10.9535 14.4047 11.2811 13.8456 11.6667 13.3325" stroke="#6B7280" stroke-width="1.5" stroke-linecap="round"/>
<path d="M18.332 6.66667C13.0469 6.66667 8.58269 10.1809 7.14844 15" stroke="#6B7280" stroke-width="1.5" stroke-linecap="round"/>
<path d="M18.3327 3.33333C11.194 3.33333 5.22011 8.32003 3.70435 15" stroke="#6B7280" stroke-width="1.5" stroke-linecap="round"/>
<path d="M15.8333 18.3333C17.214 18.3333 18.3333 17.2141 18.3333 15.8333C18.3333 15.2532 18.1356 14.7192 17.8041 14.295C17.3841 13.7577 17.1741 13.4891 17.1287 13.3572C17.0833 13.2253 17.0833 13.0524 17.0833 12.7065V10.4167C17.0833 9.72631 16.5236 9.16667 15.8333 9.16667C15.1429 9.16667 14.5833 9.72632 14.5833 10.4167V12.7065C14.5833 13.0524 14.5833 13.2253 14.5378 13.3572C14.4924 13.4891 14.2824 13.7577 13.8624 14.295C13.5309 14.7192 13.3333 15.2532 13.3333 15.8333C13.3333 17.2141 14.4525 18.3333 15.8333 18.3333Z" stroke="#6B7280" stroke-width="1.3" stroke-linejoin="round"/>
<path d="M1.66675 8.33333C2.39854 8.33333 3.1083 8.42765 3.78453 8.60481" stroke="#6B7280" stroke-width="1.5" stroke-linecap="round"/>
<path d="M1.66675 5C3.22179 5 4.70577 5.30424 6.06242 5.85644" stroke="#6B7280" stroke-width="1.5" stroke-linecap="round"/>
<path d="M1.66675 1.66667C4.31286 1.66667 6.79894 2.35184 8.95725 3.55445" stroke="#6B7280" stroke-width="1.5" stroke-linecap="round"/>
</svg>
