<svg width="16" height="16" viewBox="0 0 16 16" fill="none" xmlns="http://www.w3.org/2000/svg">
<g clip-path="url(#clip0_7126_2171)">
<path d="M7.99993 0.833313C8.17776 0.833313 8.34221 0.927769 8.43182 1.08138L10.6593 4.89988L14.7889 5.94137C14.96 5.98454 15.0957 6.11475 15.1459 6.28397C15.1961 6.45319 15.1534 6.63634 15.0335 6.76587L12.2119 9.81361L13.2747 14.5573C13.3156 14.7397 13.2513 14.9297 13.1081 15.0498C12.9648 15.1699 12.7665 15.2001 12.5941 15.128L7.99993 13.2085L3.40579 15.128C3.23331 15.2001 3.03504 15.1699 2.8918 15.0498C2.74856 14.9297 2.68426 14.7397 2.72513 14.5573L3.78794 9.81361L0.966358 6.76587C0.846443 6.63634 0.803707 6.45319 0.853916 6.28397C0.904124 6.11475 1.03984 5.98454 1.21099 5.94137L5.34058 4.89988L7.56804 1.08138C7.65764 0.927769 7.82209 0.833313 7.99993 0.833313Z" fill="#EAB308"/>
</g>
<defs>
<clipPath id="clip0_7126_2171">
<rect width="16" height="16" fill="white"/>
</clipPath>
</defs>
</svg>
