<svg width="16" height="16" viewBox="0 0 16 16" fill="none" xmlns="http://www.w3.org/2000/svg">
<path d="M14.625 10.9925C14.4842 11.152 14.3111 11.2798 14.1171 11.3673C13.9231 11.4548 13.7128 11.5 13.5 11.5H10V12.5C10 13.163 9.73661 13.7989 9.26777 14.2678C8.79893 14.7366 8.16304 15 7.5 15C7.40711 15.0001 7.31604 14.9743 7.237 14.9255C7.15795 14.8767 7.09407 14.8068 7.0525 14.7237L4.69125 10H2C1.73478 10 1.48043 9.89464 1.29289 9.70711C1.10536 9.51957 1 9.26522 1 9V3.5C1 3.23478 1.10536 2.98043 1.29289 2.79289C1.48043 2.60536 1.73478 2.5 2 2.5H12.75C13.1154 2.49987 13.4684 2.63316 13.7425 2.87483C14.0166 3.1165 14.1931 3.44993 14.2388 3.8125L14.9888 9.8125C15.0153 10.0237 14.9966 10.2382 14.9339 10.4417C14.8712 10.6451 14.7659 10.8329 14.625 10.9925ZM2 9H4.5V3.5H2V9Z" fill="#B91C1C"/>
</svg>
