<svg width="18" height="18" viewBox="0 0 18 18" fill="none" xmlns="http://www.w3.org/2000/svg">
<g clip-path="url(#clip0_7126_12660)">
<path d="M8.24326 16.2844C8.4711 16.4159 8.72956 16.4852 8.99266 16.4852C9.25575 16.4852 9.51421 16.4159 9.74206 16.2844L14.9879 13.2868C15.2155 13.1554 15.4045 12.9664 15.5361 12.7389C15.6676 12.5113 15.737 12.2532 15.7373 11.9903V5.99511C15.737 5.73228 15.6676 5.47414 15.5361 5.24658C15.4045 5.01903 15.2155 4.83007 14.9879 4.69865L9.74206 1.70105C9.51421 1.5695 9.25575 1.50024 8.99266 1.50024C8.72956 1.50024 8.4711 1.5695 8.24326 1.70105L2.99745 4.69865C2.76983 4.83007 2.58077 5.01903 2.44923 5.24658C2.3177 5.47414 2.24832 5.73228 2.24805 5.99511V11.9903C2.24832 12.2532 2.3177 12.5113 2.44923 12.7389C2.58077 12.9664 2.76983 13.1554 2.99745 13.2868L8.24326 16.2844Z" stroke="#1E40AF" stroke-width="1.1241" stroke-linecap="round" stroke-linejoin="round"/>
<path d="M8.99316 16.4869V8.99292" stroke="#1E40AF" stroke-width="1.1241" stroke-linecap="round" stroke-linejoin="round"/>
<path d="M2.46582 5.24585L8.9931 8.99285L15.5204 5.24585" stroke="#1E40AF" stroke-width="1.1241" stroke-linecap="round" stroke-linejoin="round"/>
<path d="M5.62012 3.19995L12.3647 7.05937" stroke="#1E40AF" stroke-width="1.1241" stroke-linecap="round" stroke-linejoin="round"/>
</g>
<defs>
<clipPath id="clip0_7126_12660">
<rect width="17.9856" height="17.9856" fill="white"/>
</clipPath>
</defs>
</svg>
