<svg width="20" height="20" viewBox="0 0 20 20" fill="none" xmlns="http://www.w3.org/2000/svg">
<path d="M12.505 5.00804L11.9737 4.47876V4.47876L12.505 5.00804ZM12.5071 7.48937L11.9765 8.01952V8.01952L12.5071 7.48937ZM14.9916 7.4899L15.5219 8.02028V8.02028L14.9916 7.4899ZM17.468 5.01389L18.1506 4.70319L17.7026 3.71879L16.9377 4.48352L17.468 5.01389ZM14.9767 2.52654L15.5081 3.05582L16.2711 2.28976L15.2863 1.84342L14.9767 2.52654ZM5.41536 17.9165L4.88503 18.4468C5.02568 18.5875 5.21645 18.6665 5.41536 18.6665C5.61427 18.6665 5.80504 18.5875 5.94569 18.4468L5.41536 17.9165ZM2.08203 14.5832L1.5517 14.0528C1.25881 14.3457 1.25881 14.8206 1.5517 15.1135L2.08203 14.5832ZM11.463 11.8689L11.6804 11.1511L11.2504 11.0208L10.9326 11.3386L11.463 11.8689ZM8.12927 8.53592L8.6596 9.06625L8.97742 8.74843L8.847 8.3183L8.12927 8.53592ZM12.505 5.00804L11.9737 4.47876C10.9983 5.45798 10.9996 7.04189 11.9765 8.01952L12.5071 7.48937L13.0376 6.95923C12.6453 6.56663 12.6447 5.93055 13.0364 5.53731L12.505 5.00804ZM14.9916 7.4899L14.4613 6.95953C14.0681 7.35268 13.4306 7.35255 13.0376 6.95923L12.5071 7.48937L11.9765 8.01952C12.9553 8.99894 14.5428 8.99928 15.5219 8.02028L14.9916 7.4899ZM17.9149 7.08298H17.1649C17.1649 9.43019 15.2621 11.333 12.9149 11.333V12.083V12.833C16.0905 12.833 18.6649 10.2586 18.6649 7.08298H17.9149ZM7.91489 7.08298H8.66489C8.66489 4.73577 10.5677 2.83298 12.9149 2.83298V2.08298V1.33298C9.73925 1.33298 7.16489 3.90734 7.16489 7.08298H7.91489ZM17.468 5.01389L16.7854 5.32459C17.0289 5.85951 17.1649 6.45434 17.1649 7.08298H17.9149H18.6649C18.6649 6.23571 18.4812 5.42933 18.1506 4.70319L17.468 5.01389ZM17.468 5.01389L16.9377 4.48352L14.4613 6.95953L14.9916 7.4899L15.5219 8.02028L17.9983 5.54427L17.468 5.01389ZM12.9149 2.08298V2.83298C13.5411 2.83298 14.1338 2.96794 14.6671 3.20965L14.9767 2.52654L15.2863 1.84342C14.5623 1.5153 13.7589 1.33298 12.9149 1.33298V2.08298ZM14.9767 2.52654L14.4453 1.99726L11.9737 4.47876L12.505 5.00804L13.0364 5.53731L15.5081 3.05582L14.9767 2.52654ZM2.08203 14.5832L1.5517 15.1135L4.88503 18.4468L5.41536 17.9165L5.94569 17.3862L2.61236 14.0528L2.08203 14.5832ZM11.463 11.8689L10.9326 11.3386L4.88503 17.3862L5.41536 17.9165L5.94569 18.4468L11.9933 12.3992L11.463 11.8689ZM12.9149 12.083V11.333C12.4844 11.333 12.0702 11.2692 11.6804 11.1511L11.463 11.8689L11.2455 12.5867C11.7747 12.747 12.3354 12.833 12.9149 12.833V12.083ZM8.12927 8.53592L8.847 8.3183C8.72874 7.92829 8.66489 7.51377 8.66489 7.08298H7.91489H7.16489C7.16489 7.66284 7.25096 8.22396 7.41153 8.75355L8.12927 8.53592ZM2.08203 14.5832L2.61236 15.1135L8.6596 9.06625L8.12927 8.53592L7.59894 8.00559L1.5517 14.0528L2.08203 14.5832Z" fill="#6B7280"/>
<path d="M5.42154 14.5803L5.41626 14.5856" stroke="#6B7280" stroke-width="1.5" stroke-linecap="square" stroke-linejoin="round"/>
</svg>
